<?xml version="1.0" encoding="UTF-8"?>
<svg xmlns="http://www.w3.org/2000/svg" xmlns:xlink="http://www.w3.org/1999/xlink" viewBox="0 0 96 96" width="96px" height="96px">
<defs>
<linearGradient id="linear0" gradientUnits="userSpaceOnUse" x1="83.549004" y1="48.710941" x2="83.549004" y2="114.920189" >
<stop offset="0" style="stop-color:rgb(54.11765%,70.588237%,100%);stop-opacity:1;"/>
<stop offset="1" style="stop-color:rgb(89.411765%,57.254905%,100%);stop-opacity:1;"/>
</linearGradient>
<linearGradient id="linear1" gradientUnits="userSpaceOnUse" x1="85.997307" y1="48.710941" x2="85.997307" y2="114.920189" >
<stop offset="0" style="stop-color:rgb(54.11765%,70.588237%,100%);stop-opacity:1;"/>
<stop offset="1" style="stop-color:rgb(89.411765%,57.254905%,100%);stop-opacity:1;"/>
</linearGradient>
<linearGradient id="linear2" gradientUnits="userSpaceOnUse" x1="80.748627" y1="48.710941" x2="80.748627" y2="114.920189" >
<stop offset="0" style="stop-color:rgb(54.11765%,70.588237%,100%);stop-opacity:1;"/>
<stop offset="1" style="stop-color:rgb(89.411765%,57.254905%,100%);stop-opacity:1;"/>
</linearGradient>
<linearGradient id="linear3" gradientUnits="userSpaceOnUse" x1="85.997307" y1="9.74219" x2="85.997307" y2="155.595505" >
<stop offset="0" style="stop-color:rgb(10.196079%,42.745098%,100%);stop-opacity:1;"/>
<stop offset="1" style="stop-color:rgb(78.431374%,13.333334%,100%);stop-opacity:1;"/>
</linearGradient>
<linearGradient id="linear4" gradientUnits="userSpaceOnUse" x1="83.549004" y1="48.710941" x2="83.549004" y2="114.920189" gradientTransform="matrix(0.542512,0,0,0.542512,1.344,1.344)">
<stop offset="0" style="stop-color:rgb(54.11765%,70.588237%,100%);stop-opacity:1;"/>
<stop offset="1" style="stop-color:rgb(89.411765%,57.254905%,100%);stop-opacity:1;"/>
</linearGradient>
<linearGradient id="linear5" gradientUnits="userSpaceOnUse" x1="85.997307" y1="48.710941" x2="85.997307" y2="114.920189" gradientTransform="matrix(0.542512,0,0,0.542512,1.344,1.344)">
<stop offset="0" style="stop-color:rgb(54.11765%,70.588237%,100%);stop-opacity:1;"/>
<stop offset="1" style="stop-color:rgb(89.411765%,57.254905%,100%);stop-opacity:1;"/>
</linearGradient>
<linearGradient id="linear6" gradientUnits="userSpaceOnUse" x1="80.748627" y1="48.710941" x2="80.748627" y2="114.920189" gradientTransform="matrix(0.542512,0,0,0.542512,1.344,1.344)">
<stop offset="0" style="stop-color:rgb(54.11765%,70.588237%,100%);stop-opacity:1;"/>
<stop offset="1" style="stop-color:rgb(89.411765%,57.254905%,100%);stop-opacity:1;"/>
</linearGradient>
<linearGradient id="linear7" gradientUnits="userSpaceOnUse" x1="85.997307" y1="9.74219" x2="85.997307" y2="155.595505" gradientTransform="matrix(0.542512,0,0,0.542512,1.344,1.344)">
<stop offset="0" style="stop-color:rgb(10.196079%,42.745098%,100%);stop-opacity:1;"/>
<stop offset="1" style="stop-color:rgb(78.431374%,13.333334%,100%);stop-opacity:1;"/>
</linearGradient>
</defs>
<g id="surface7684466">
<path style="fill-rule:nonzero;fill:url(#linear0);stroke-width:5;stroke-linecap:butt;stroke-linejoin:round;stroke:rgb(0%,0%,0%);stroke-opacity:1;stroke-miterlimit:10;" d="M 121.987132 87.504864 C 124.456837 89.024128 125.23447 92.257066 123.715205 94.726771 C 122.19594 97.196476 118.963003 97.966909 116.493298 96.454845 C 98.391727 85.330371 70.800153 82.104634 49.379241 88.606511 C 46.607123 89.448947 43.669398 87.87928 42.826962 85.107162 C 41.991727 82.327843 43.561393 79.404519 46.326311 78.554883 C 70.792952 71.138567 101.199847 74.73152 121.987132 87.504864 " transform="matrix(0.542512,0,0,0.542512,1.344,1.344)"/>
<path style="fill-rule:nonzero;fill:url(#linear1);stroke-width:5;stroke-linecap:butt;stroke-linejoin:round;stroke:rgb(0%,0%,0%);stroke-opacity:1;stroke-miterlimit:10;" d="M 130.857909 64.795097 C 133.853237 66.566373 134.832478 70.440137 133.054003 73.421064 C 131.275527 76.416392 127.408962 77.402834 124.420835 75.624358 C 102.711911 62.728609 66.904787 61.547759 46.182305 67.833627 C 42.855763 68.84887 39.334813 66.96959 38.326771 63.643048 C 37.318728 60.309306 39.198008 56.795557 42.524549 55.780313 C 66.314362 48.558406 105.865645 49.955266 130.857909 64.795097 " transform="matrix(0.542512,0,0,0.542512,1.344,1.344)"/>
<path style="fill-rule:nonzero;fill:url(#linear2);stroke-width:5;stroke-linecap:butt;stroke-linejoin:round;stroke:rgb(0%,0%,0%);stroke-opacity:1;stroke-miterlimit:10;" d="M 114.081195 107.291306 C 116.061279 108.493757 116.687706 111.085868 115.478054 113.065952 C 114.268403 115.046036 111.683493 115.665262 109.703409 114.455611 C 93.884335 104.7928 73.982688 102.611107 50.53849 107.968135 C 48.277594 108.486557 46.023898 107.068097 45.512676 104.8072 C 44.994254 102.546304 46.405514 100.299808 48.666411 99.781386 C 74.328303 93.920337 96.33244 96.440444 114.081195 107.291306 " transform="matrix(0.542512,0,0,0.542512,1.344,1.344)"/>
<path style="fill-rule:nonzero;fill:url(#linear3);stroke-width:5;stroke-linecap:butt;stroke-linejoin:round;stroke:rgb(0%,0%,0%);stroke-opacity:1;stroke-miterlimit:10;" d="M 86 153.186059 C 47.463959 153.186059 16.121025 121.843125 16.121025 83.314285 C 16.121025 44.778245 47.463959 13.435311 86 13.435311 C 124.52884 13.435311 155.871774 44.778245 155.871774 83.314285 C 155.871774 121.843125 124.52884 153.186059 86 153.186059 Z M 86 18.81394 C 50.430486 18.81394 21.499654 47.751972 21.499654 83.314285 C 21.499654 118.876599 50.430486 147.814631 86 147.814631 C 121.562313 147.814631 150.500345 118.876599 150.500345 83.314285 C 150.500345 47.751972 121.562313 18.81394 86 18.81394 Z M 86 18.81394 " transform="matrix(0.542512,0,0,0.542512,1.344,1.344)"/>
<path style=" stroke:none;fill-rule:nonzero;fill:url(#linear4);" d="M 67.523438 48.816406 C 56.246094 41.886719 39.75 39.9375 26.476562 43.960938 C 24.976562 44.421875 24.125 46.007812 24.578125 47.515625 C 25.035156 49.019531 26.628906 49.871094 28.132812 49.414062 C 39.753906 45.886719 54.722656 47.636719 64.542969 53.671875 C 65.882812 54.492188 67.636719 54.074219 68.460938 52.734375 C 69.285156 51.394531 68.863281 49.640625 67.523438 48.816406 "/>
<path style=" stroke:none;fill-rule:nonzero;fill:url(#linear5);" d="M 72.335938 36.496094 C 58.777344 28.445312 37.320312 27.6875 24.414062 31.605469 C 22.609375 32.15625 21.589844 34.0625 22.136719 35.871094 C 22.683594 37.675781 24.59375 38.695312 26.398438 38.144531 C 37.640625 34.734375 57.066406 35.375 68.84375 42.371094 C 70.464844 43.335938 72.5625 42.800781 73.527344 41.175781 C 74.492188 39.558594 73.960938 37.457031 72.335938 36.496094 "/>
<path style=" stroke:none;fill-rule:nonzero;fill:url(#linear6);" d="M 63.234375 59.550781 C 53.605469 53.664062 41.667969 52.296875 27.746094 55.476562 C 26.519531 55.757812 25.753906 56.976562 26.035156 58.203125 C 26.3125 59.429688 27.535156 60.199219 28.761719 59.917969 C 41.480469 57.011719 52.277344 58.195312 60.859375 63.4375 C 61.933594 64.09375 63.335938 63.757812 63.992188 62.683594 C 64.648438 61.609375 64.308594 60.203125 63.234375 59.550781 "/>
<path style=" stroke:none;fill-rule:nonzero;fill:url(#linear7);" d="M 48 84.449219 C 27.09375 84.449219 10.089844 67.445312 10.089844 46.542969 C 10.089844 25.636719 27.09375 8.632812 48 8.632812 C 68.902344 8.632812 85.90625 25.636719 85.90625 46.542969 C 85.90625 67.445312 68.902344 84.449219 48 84.449219 Z M 48 11.550781 C 28.703125 11.550781 13.007812 27.25 13.007812 46.542969 C 13.007812 65.835938 28.703125 81.535156 48 81.535156 C 67.292969 81.535156 82.992188 65.835938 82.992188 46.542969 C 82.992188 27.25 67.292969 11.550781 48 11.550781 Z M 48 11.550781 "/>
</g>
</svg>
